<?xml version="1.0" encoding="UTF-8" standalone="no"?>
<svg
   xmlns:dc="http://purl.org/dc/elements/1.1/"
   xmlns:cc="http://creativecommons.org/ns#"
   xmlns:rdf="http://www.w3.org/1999/02/22-rdf-syntax-ns#"
   xmlns:svg="http://www.w3.org/2000/svg"
   xmlns="http://www.w3.org/2000/svg"
   viewBox="0 0 522.89331 284.69333"
   height="284.69333"
   width="522.89331"
   xml:space="preserve"
   id="svg2"
   version="1.1"><metadata
     id="metadata8"><rdf:RDF><cc:Work
         rdf:about=""><dc:format>image/svg+xml</dc:format><dc:type
           rdf:resource="http://purl.org/dc/dcmitype/StillImage" /></cc:Work></rdf:RDF></metadata><defs
     id="defs6" /><g
     transform="matrix(1.3333333,0,0,-1.3333333,0,284.69333)"
     id="g10"><g
       transform="scale(0.1)"
       id="g12"><path
         id="path14"
         style="fill:#1f2037;fill-opacity:1;fill-rule:nonzero;stroke:none"
         d="M 1257.55,678.301 V 0 L 2617.7,678.301 Z" /><path
         id="path16"
         style="fill:#1f2037;fill-opacity:1;fill-rule:nonzero;stroke:none"
         d="m 0,596.57 h 3533.33 c 129.47,363.77 258.94,727.54 388.4,1091.31 H 388.402 L 0,596.57" /><path
         id="path18"
         style="fill:#14192b;fill-opacity:1;fill-rule:nonzero;stroke:none"
         d="M 3575.78,1687.88 H 708.07 L 543.246,1229.93 H 3410.95 l 27.96,77.65 136.87,380.3" /><path
         id="path20"
         style="fill:#cd1e25;fill-opacity:1;fill-rule:nonzero;stroke:none"
         d="M 685.402,1340.7 H 3352.35 c 97.72,264.82 195.44,529.64 293.17,794.46 H 978.57 L 685.402,1340.7" /><path
         id="path22"
         style="fill:#14192b;fill-opacity:1;fill-rule:nonzero;stroke:none"
         d="m 1257.54,488.031 h 982.18 l 218.6,110.778 H 1257.54 V 488.031" /><path
         id="path24"
         style="fill:#ffffff;fill-opacity:1;fill-rule:nonzero;stroke:none"
         d="m 432.344,1057.49 h 73.769 l -21.441,-79.131 73.453,79.131 h 89.848 L 547.406,956.609 593.438,836.82 h -78.5 l -26.481,70.922 -30.894,-30.89 -10.715,-40.032 h -73.774 l 59.27,220.67" /><path
         id="path26"
         style="fill:#ffffff;fill-opacity:1;fill-rule:nonzero;stroke:none"
         d="m 664.977,1057.49 h 69.039 l 50.125,-105.291 28.371,105.291 h 73.136 L 826.383,836.82 h -65.57 l -52.333,109.7 -29.632,-109.7 h -73.141 l 59.27,220.67" /><path
         id="path28"
         style="fill:#ffffff;fill-opacity:1;fill-rule:nonzero;stroke:none"
         d="m 1045.15,955.352 c 0,23.328 -14.19,41.609 -40.67,41.609 -30.894,0 -50.753,-30.262 -50.753,-58.012 0,-23.328 14.183,-41.609 40.664,-41.609 30.889,0 50.759,30.269 50.759,58.012 z m -165.509,-23.02 c 0,68.408 55.8,129.568 129.879,129.568 64.94,0 109.71,-43.5 109.71,-99.931 0,-68.41 -55.8,-129.571 -129.882,-129.571 -64.946,0 -109.707,43.512 -109.707,99.934" /><path
         id="path30"
         style="fill:#ffffff;fill-opacity:1;fill-rule:nonzero;stroke:none"
         d="m 1140.33,1057.49 h 75.66 l 2.84,-105.931 63.99,106.551 h 63.68 l 7.25,-106.551 59.58,105.931 h 77.56 L 1359.11,835.238 h -64.31 l -9.45,109.703 -68.1,-109.703 h -64.31 l -12.61,222.252" /><path
         id="path32"
         style="fill:#ffffff;fill-opacity:1;fill-rule:nonzero;stroke:none"
         d="m 1633.35,995.07 h -64.94 l 16.71,62.42 h 203.64 l -16.7,-62.42 h -64.94 l -42.56,-158.25 h -73.77 l 42.56,158.25" /><path
         id="path34"
         style="fill:#ffffff;fill-opacity:1;fill-rule:nonzero;stroke:none"
         d="m 1810.82,1057.49 h 73.77 l -21.12,-77.869 h 67.46 l 21.12,77.869 h 73.77 l -59.27,-220.67 h -73.77 l 21.13,79.129 h -67.46 l -21.13,-79.129 h -73.77 l 59.27,220.67" /><path
         id="path36"
         style="fill:#ffffff;fill-opacity:1;fill-rule:nonzero;stroke:none"
         d="m 2055.75,1057.49 h 188.2 l -16.4,-60.529 h -115.69 l -6,-22.379 h 107.83 l -14.19,-53.281 h -107.82 l -6.62,-23.961 h 117.28 l -16.09,-60.52 h -189.77 l 59.27,220.67" /><path
         id="path38"
         style="fill:#ffffff;fill-opacity:1;fill-rule:nonzero;stroke:none"
         d="m 2360.25,1057.49 h 184.74 l -17.03,-63.049 H 2417 l -7.57,-28.05 h 103.08 L 2497.07,909 h -103.09 l -19.23,-72.18 h -73.77 l 59.27,220.67" /><path
         id="path40"
         style="fill:#ffffff;fill-opacity:1;fill-rule:nonzero;stroke:none"
         d="m 2649.32,918.781 -5.99,53.59 -34.36,-53.59 z m -20.17,140.279 h 73.13 l 33.42,-222.24 h -78.5 l -3.79,29.621 h -77.22 l -19.24,-29.621 h -80.38 l 152.58,222.24" /><path
         id="path42"
         style="fill:#ffffff;fill-opacity:1;fill-rule:nonzero;stroke:none"
         d="m 2752.39,928.871 c 0,60.211 46.34,133.349 141.54,133.349 47.61,0 81.34,-25.22 90.48,-64.31 l -65.89,-28.691 c -4.73,17.972 -17.66,26.801 -34.36,26.801 -33.1,0 -54.54,-30.27 -54.54,-60.532 0,-24.277 15.13,-37.828 34.68,-37.828 17.02,0 30.89,8.199 42.87,23.012 l 51.07,-40.352 c -22.06,-29 -54.22,-48.23 -101.19,-48.23 -61.79,0 -104.66,37.512 -104.66,96.781" /><path
         id="path44"
         style="fill:#ffffff;fill-opacity:1;fill-rule:nonzero;stroke:none"
         d="m 3061.62,995.07 h -64.94 l 16.7,62.42 h 203.66 l -16.71,-62.42 h -64.94 l -42.56,-158.25 h -73.77 l 42.56,158.25" /><path
         id="path46"
         style="fill:#ffffff;fill-opacity:1;fill-rule:nonzero;stroke:none"
         d="m 3179.83,872.441 42.25,50.438 c 25.21,-21.117 51.06,-31.207 74.39,-31.207 9.45,0 16.07,3.469 16.07,9.769 0,6.938 -4.09,9.149 -36.25,21.118 -40.98,15.132 -60.21,29.64 -60.21,62.113 0,42.558 39.09,77.228 99.31,77.228 39.4,0 74.39,-12.6 98.36,-33.1 l -42.25,-50.441 c -16.71,13.551 -40.35,24.591 -63.68,24.591 -9.46,0 -16.08,-2.52 -16.08,-8.829 0,-6.621 4.73,-7.879 35.31,-19.23 37.52,-13.871 61.47,-29.629 61.47,-63.36 0,-44.449 -36.57,-79.133 -99.93,-79.133 -43.82,0 -81.96,15.762 -108.76,40.043" /><path
         id="path48"
         style="fill:#ffffff;fill-opacity:1;fill-rule:nonzero;stroke:none"
         d="m 2683.78,1613.87 v 28.43 l 28.73,3.28 c 9.99,1.24 14.15,10.35 15.41,12.43 l 71.63,116.58 c 5.81,9.16 0.12,17.2 -7.37,18.05 l -37.63,4.43 v 28.73 h 163.22 c 9.17,0 14.99,-6.25 18.76,-11.66 l 95.34,-145.73 c 7.49,-11.65 13.31,-20.82 22.88,-22.07 l 29.99,-3.33 v -29.14 h -183.62 v 28.74 l 23.31,2.9 c 11.25,1.26 20.4,6.25 11.25,19.99 l -8.74,13.32 H 2796.6 l -9.98,-16.23 c -6.24,-9.99 0,-15.82 9.57,-17.08 l 23.32,-2.9 v -28.74 z m 136.14,102.42 h 82.43 l -41.61,65.38 z" /><path
         id="path50"
         style="fill:#ffffff;fill-opacity:1;fill-rule:nonzero;stroke:none"
         d="m 2562.2,1825.8 h -209.97 l -0.03,-28.73 26.29,-2.71 c 9.87,-1.45 13.83,-8.53 13.83,-18.11 v -114.09 c 0,-7.91 -3.32,-15.39 -12.08,-16.65 l -28.15,-3.66 v -27.9 l 210.11,-0.08 c 96.59,0 138.23,47.05 138.23,109.09 0,55.79 -41.64,102.84 -138.23,102.84 m -32.48,-171.12 h -54.12 v 130.73 h 54.12 c 51.63,0 73.28,-12.07 73.28,-65.36 0,-53.72 -21.65,-65.37 -73.28,-65.37" /><path
         id="path52"
         style="fill:#ffffff;fill-opacity:1;fill-rule:nonzero;stroke:none"
         d="m 1212.2,1613.87 h 169.87 v 28.31 l -29.13,3.33 c -6.66,0.83 -13.32,4.99 -13.32,19.16 v 34.14 h 130.74 v -32.49 c 0,-9.56 -1.67,-18.73 -12.92,-19.98 l -29.56,-3.33 v -29.14 h 169.88 v 29.14 l -29.98,3.33 c -5.82,0.83 -12.49,5.42 -12.49,17.49 v 110.34 c 0,11.24 4.16,18.74 12.9,19.57 l 29.57,3.33 v 28.73 h -169.88 v -28.31 l 29.56,-3.75 c 10.01,-1.25 12.92,-9.15 12.92,-19.57 v -32.89 h -130.74 v 33.31 c 0,12.5 4.99,18.32 13.74,19.15 l 28.71,3.33 v 28.73 h -169.46 v -28.73 l 28.33,-3.33 c 11.23,-1.25 14.15,-9.58 13.74,-20.4 v -107.43 c 0,-12.07 -3.33,-19.14 -14.17,-20.4 l -28.31,-3.33 v -28.31" /><path
         id="path54"
         style="fill:#ffffff;fill-opacity:1;fill-rule:nonzero;stroke:none"
         d="m 1606.12,1720.87 c 0,66.62 53.71,113.26 173.61,113.26 119.09,0 172.81,-46.64 172.81,-113.26 0,-68.27 -53.72,-114.5 -172.81,-114.5 -119.9,0 -173.61,46.23 -173.61,114.5 m 173.2,72.45 c -48.29,0 -75.77,-17.9 -75.77,-72.86 0,-55.8 27.48,-73.69 75.77,-73.69 48.31,0 75.79,17.89 75.79,73.69 0,54.96 -27.48,72.86 -75.79,72.86" /><path
         id="path56"
         style="fill:#ffffff;fill-opacity:1;fill-rule:nonzero;stroke:none"
         d="m 1962.01,1613.87 h 135.73 v 28.31 l -29.14,3.33 c -8.34,0.83 -13.33,7.83 -13.33,17.49 v 107.83 l 112.84,-148.63 c 3.74,-5.02 10.81,-8.33 17.49,-8.33 h 106.58 v 160.72 c 0,7.53 2,17.86 12.9,19.15 l 29.58,3.33 v 28.73 h -135.75 v -28.31 l 29.57,-3.75 c 10.43,-1.26 12.9,-9.99 12.9,-19.98 v -104.93 l -112,147.81 c -4.16,5.41 -9.57,9.16 -17.49,9.16 h -149.88 v -28.73 l 28.3,-3.33 c 10,-1.49 13.74,-6.56 13.74,-20.4 v -107.43 c 0,-12.73 -3.47,-18.84 -14.16,-20.4 l -27.88,-3.33 v -28.31" /></g></g></svg>